<?xml version="1.0" standalone="no"?>
<!DOCTYPE svg PUBLIC "-//W3C//DTD SVG 20010904//EN"
 "http://www.w3.org/TR/2001/REC-SVG-20010904/DTD/svg10.dtd">
<svg version="1.0" xmlns="http://www.w3.org/2000/svg"
 width="1200.000000pt" height="1200.000000pt" viewBox="0 0 1200.000000 1200.000000"
 preserveAspectRatio="xMidYMid meet">

<g transform="translate(0.000000,1200.000000) scale(0.100000,-0.100000)"
fill="#000000" stroke="none">
<path d="M5545 8969 c-236 -138 -745 -433 -1130 -656 -385 -223 -706 -412
-714 -419 -11 -10 -15 -88 -19 -394 -5 -373 -4 -382 14 -372 10 6 161 94 334
196 343 201 759 443 1479 861 376 219 466 276 471 296 10 36 13 739 3 739 -4
-1 -201 -114 -438 -251z"/>
<path d="M5535 7654 c-242 -141 -501 -291 -575 -333 -192 -111 -775 -450
-1040 -605 l-225 -132 -6 -89 c-3 -50 -6 -224 -8 -388 -2 -284 -1 -298 16
-288 10 6 160 93 333 195 305 178 666 389 935 544 72 41 220 127 330 192 110
64 308 180 439 257 188 109 241 145 246 164 10 36 13 739 3 739 -4 -1 -206
-116 -448 -256z"/>
<path d="M7995 7702 c-176 -103 -334 -197 -350 -208 -17 -11 -127 -76 -245
-144 -522 -299 -828 -476 -865 -500 -22 -15 -146 -88 -276 -164 -138 -80 -239
-144 -242 -155 -2 -9 -5 -182 -6 -384 l-2 -367 153 89 c84 49 350 203 590 342
827 480 1103 640 1328 772 l225 133 5 94 c6 103 13 680 8 679 -2 0 -147 -85
-323 -187z"/>
<path d="M7995 6391 c-176 -103 -692 -405 -1146 -670 -504 -294 -829 -489
-832 -499 -2 -10 -5 -181 -6 -381 -2 -298 0 -363 11 -359 11 5 881 509 1958
1135 l325 189 5 95 c6 102 13 679 8 678 -2 0 -147 -85 -323 -188z"/>
<path d="M4941 3555 c-99 -28 -156 -93 -168 -193 -8 -73 11 -127 66 -182 39
-39 67 -55 167 -94 155 -60 203 -108 187 -188 -9 -49 -20 -66 -55 -84 -43 -22
-148 -16 -185 12 -40 30 -73 82 -73 115 0 29 -1 29 -60 29 l-60 0 0 -135 0
-135 60 0 60 0 0 36 0 36 39 -35 c101 -91 292 -61 366 57 25 42 31 62 33 126
7 145 -53 209 -277 296 -94 36 -141 78 -141 126 0 72 62 114 157 106 49 -4 61
-10 89 -40 20 -22 34 -51 39 -77 l7 -41 54 0 54 0 0 130 0 130 -55 0 -55 0 0
-37 0 -38 -25 28 c-55 58 -134 77 -224 52z"/>
<path d="M5893 3560 c-136 -28 -224 -137 -253 -312 -37 -232 29 -444 165 -528
55 -34 151 -45 227 -25 144 37 229 164 245 371 l6 84 -152 0 -151 0 0 -60 0
-60 90 0 c62 0 90 -4 90 -12 0 -32 -37 -122 -64 -154 -36 -45 -80 -64 -144
-64 -80 0 -146 58 -174 154 -19 64 -16 300 5 355 37 97 92 141 175 141 81 0
155 -66 168 -152 l7 -38 58 0 59 0 0 145 0 145 -60 0 -60 0 0 -47 0 -48 -21
33 c-39 60 -130 90 -216 72z"/>
<path d="M6570 3125 l0 -425 60 0 60 0 0 287 c0 160 4 283 9 278 4 -6 26 -74
47 -152 l39 -143 50 0 50 0 39 146 c22 80 43 147 48 150 4 3 8 -123 8 -280 l0
-286 60 0 60 0 0 425 0 426 -76 -3 -77 -3 -43 -150 c-24 -82 -49 -168 -55
-190 -14 -49 -17 -43 -58 100 -18 61 -41 140 -52 178 l-20 67 -74 0 -75 0 0
-425z"/>
</g>
</svg>
